<svg version="1.2" xmlns="http://www.w3.org/2000/svg" viewBox="0 0 800 800" width="800" height="800"><style>.a{fill:#fff}</style><path class="a" d="m253.3 3.4c7.9-0.2 14.6 4.5 21.8 6.7 17.6-5.6 21.6 2.1 30.3 5.3 19.2-4 25.1 4.7 34.3 14l10.7-0.3c29 16.9 43.5 51.2 48.6 68.8 5.1-17.6 19.5-51.9 48.6-68.8l10.7 0.2c9.2-9.4 15.1-17.9 34.3-13.9 8.7-3.5 12.6-11 30.3-5.5 11-3.5 20.7-12.5 35.3-1.5 12.2-5 24.2-6.5 34.8 3 16.5-2 21.8 2 25.8 7 3.6 0 27-3.5 37.7 12 27-3 35.5 15.4 25.8 32.9 5.5 8.5 11.3 16.5-1.6 32.5 5 9 2 18.4-9 30.4 3 12.5-2.5 21-12.5 28 2 17-16 27-21 30.5-2 10-6 19.4-26.5 24.4-2.9 15-15.4 17.5-27.4 20.5 39.5 22.5 72.9 51.9 72.9 124.4l6 9.9c45 27 85.4 113.4 22.5 183.8-4 22-11 37.5-17 55-9 70.4-69.4 103.3-85.4 107.3-23 17.5-47.9 34-81.4 45.5-31.4 32-65.9 44.5-99.8 44.5h-3.1c-34.4 0-68.7-12.5-100.4-44.5-33.5-11.5-58.4-27.9-81.5-45.4-16-4-76.1-36.9-85.4-107.4-6.3-17.5-13.2-33.5-17.3-55.4-63.1-70.4-22.7-156.8 22.2-183.8l5.7-10c0-72.4 33.5-101.9 73-124.4-12-3-24-5.5-27.5-20.5-20.5-5-24.5-14.4-26.5-24.4-5-3.5-22.9-13.5-20.9-31-10-7-15.5-15.5-12.5-28.4-10.5-11.6-13.5-21.5-9-30.5-13-16-7-24.5-1.5-32.5-9.5-17.5-1-36.5 25.9-33.5 10.5-15.5 34-11.9 37.5-11.9 4-5 9.5-9.5 25.9-7.5 10.5-9.5 22.5-8 35-3.4 5-4 9.5-5.5 13.5-5.5zm15.2 584.5c-30.3-34.7-69.6-55.3-95.1-40-17 12.8-20.1 56.2 4.1 98.9 36 50.8 86.6 56 107.4 43.6 22-16.3 10-71.2-16.4-102.5zm136.8 104.8c-36.8-0.8-93.3 14.7-92.5 34.4-0.6 13.5 44.3 52.4 90.1 50.5 44.2 1 90-38 89.4-55-0.1-17.4-49.9-30.9-86.9-29.5zm-2.5-464.8c-42.5-1-83.4 31.1-83.4 49.8-0.1 22.7 33.6 45.9 83.7 46.5 51.4 0.3 83.9-18.7 84.4-42 0.5-26.5-46.5-54.7-83.9-54.3zm-102.4 17.8c-71.2-11.5-130.4 30-128.1 106.4 2.4 29.4 154.4-101.4 128.1-105.9zm325 108.3c2.4-75.9-57-117.3-128.1-105.8-26.3 4.5 125.7 135.3 128.1 105.8zm12.1 27.5c-41.3-11-14 168.3 19.6 153.8 37-28.9 48.9-114.8-19.6-153.3zm-496.6 155.8c33.6 15 60.9-164.3 19.7-153.3-68.5 38.4-56.6 124.3-19.7 153.8zm313.9-198.2c-38.2 25-45.2 80.9-15.4 124.8 29.7 44 84.8 60.5 123 36 38.2-24.5 45.1-80.4 15.4-124.9-29.7-44.4-84.8-60.4-123-35.4zm-103.2 4.5c-38.2-24.5-93.3-8.5-123 35.4-29.7 44.5-22.9 100.4 15.4 125.4 38.2 25 93.3 9 123-35.5 29.5-43.9 22.5-99.9-15.5-124.8zm145.6 238.7c-0.3-46.4-41.7-83.9-92.7-83.4-50.9 0.6-92 38-91.8 84.4v1c0.4 46.5 41.8 83.9 92.8 83.4 50.9 0 91.9-37.9 91.4-83.9v-1zm107-504.4c-76.9 39.5-121.8 70.9-146.3 97.9 12.5 50 78.1 52 102.1 50.4-4.9-2-9.1-4.9-10.5-8.9 6-4 27.3-0.6 42.2-8.5-5.7-1-8.4-2.1-10.9-6.5 13.9-4.5 29.1-8 38-15.5-4.8 0-9.3 1-15.6-3 12.6-6.5 26-12 36.5-22-6.5 0-13.5 0-15.5-2.5 11.5-7 21.2-14.5 29.2-23.4-9 1.5-13 0.5-15.1-1 8.7-8.5 19.8-16 25-27-6.8 2.5-13.1 3-17.4 0 3-6.5 15.6-10.5 23-26-7.2 1-14.7 1.5-16.2 0 3.2-13 8.9-20.4 14.5-28.5-15.3 0-38.4 0-37.3-0.9l9.5-9.5c-15-4-30.2 0.5-41.2 4-5-3.5 0-8.5 6.1-13.5-13 2-24.4 4.5-34.4 8.5-5.5-5 3.5-9.5 8-14.5-20 4-28 9-36.5 14-6-5.5-0.5-10.5 3.5-15-15 5.5-22.5 12.5-30.5 18.9-3-3.4-7-5.9-2-14.9-10.5 6-18.5 13-24.5 20.9-6.4-4.4-3.9-9.9-3.9-14.9-11 9-18 18-26.5 27-2-1-3.5-5-4.5-11.5-26 25-63 87.4-9.5 111.8 45-36.4 99.4-63.4 159.3-83.4zm-408.6 0c59.9 20 113.9 46.9 159.2 83.9 53.2-25 16.4-87.4-9.4-111.8-1.4 6.4-2.8 10.9-4.5 11.9-8.5-9-15.4-18-26.3-27 0 5 2.6 11-3.9 15-5.8-7.9-13.6-15-24.1-21 4.9 8.6 0.8 11-1.9 15-8-7.5-15.5-14.5-30-20 4 5 10 10 4 15.5-7.9-4.9-16.4-10-35.9-14 4.5 5 13.5 10 7.9 15-10.5-4-22-7-34.5-8.6 6.1 5 11.4 9.7 6.4 13.5-11.5-4-26.8-8.5-41.8-4.5l9.5 9.5c1 1.2-22 1-37.4 1.2 5.5 7.5 11.2 14.9 14.5 28.4-1.5 1.5-9 0.6-16.1 0 7.5 15 20 19 22.9 25.5-4.5 3.2-10.4 2.5-17.4 0 5.5 10.5 16.5 18 24.9 27-2.4 1.5-6 2.5-15.4 1.3 7.9 8.6 17.4 16.4 28.9 23.4-2 2.4-9 2.3-15.9 2.5 10.4 10.2 23.9 15.5 36.4 22.1-6.5 4.6-11 3.5-15.5 3.5 8.5 7.5 24 11 38 15.5-3 4.5-5.5 5.5-11.5 6.5 15 8.5 36 4.5 42 9-1.5 4-5.5 7-10.5 9 24 1.5 89.9-0.5 102.4-50.5-24.5-26.9-69.5-58.4-146.4-97.3zm341.5 500c-28.5 33-44.4 93-23.6 112.4 19.9 14.9 73.4 13 112.8-41 28.7-36 19-96.5 2.7-112.4-24.3-18.5-59.2 5.4-91.9 41.4z"/></svg>