<svg version="1.2" xmlns="http://www.w3.org/2000/svg" viewBox="0 0 800 800" width="800" height="800"><style>.a{fill:#252f3e}</style><path class="a" d="m654.5 494.4c28.1-3.4 90.2-10.8 101.3 3.4 11 14-12.4 72.8-22.9 98.9-3.2 8 3.7 11.1 10.8 5.1 46.3-39.1 58.4-120.6 48.9-132.4-9.4-11.6-90.8-21.7-140.2 13.1-7.7 5.6-6.3 13 2.1 11.9z"/><path class="a" d="m399.2 637.1c108.2 0 234-34 320.5-98.1 14.2-10.6 1.9-26.6-12.6-20.1-97.1 41.2-202.6 61.2-298.7 61.2-142.3 0-280-39.3-391.6-104.1-9.7-5.8-17.1 4.2-8.9 11.6 103.2 93.3 239.7 149.5 391.3 149.5z"/><path class="a" d="m227.4 335.1c0 9.8 1 17.7 2.9 23.5q0.8 2.4 1.8 4.9 1 2.4 2 4.7 1.1 2.4 2.2 4.8 1.2 2.3 2.4 4.6c1.3 2.1 1.8 4.2 1.8 6 0 2.7-1.6 5.3-5 8l-16.6 11c-2.3 1.6-4.7 2.4-6.8 2.4-2.6 0-5.3-1.3-7.9-3.7q-1.3-1.4-2.6-2.9-1.2-1.5-2.4-3.1-1.2-1.5-2.3-3.1-1.1-1.6-2.2-3.3-1.1-1.9-2.1-3.8-1.1-1.9-2.1-3.9-1-1.9-2-3.9-1-2-1.9-3.9-30.8 36.4-77.4 36.4c-22.1 0-39.7-6.4-52.6-19-12.9-12.7-19.5-29.6-19.5-50.7 0-22.4 7.9-40.6 24-54.3 16-13.7 37.3-20.6 64.4-20.6 9 0 18.2 0.8 27.9 2.1 9.8 1.4 19.8 3.5 30.3 5.8v-19.2c0-20.1-4.2-34-12.4-42.2-8.4-8.2-22.6-12.1-42.9-12.1-9.2 0-18.7 1-28.4 3.4q-3.6 0.9-7.2 1.8-3.6 1-7.2 2.2-3.5 1.1-7 2.3-3.6 1.3-7 2.7-1.1 0.5-2.3 0.9-1.1 0.5-2.3 0.9-1.1 0.5-2.3 0.8-1.2 0.4-2.3 0.8c-1.9 0.5-3.2 0.8-4.2 0.8-3.7 0-5.6-2.7-5.6-8.2v-12.9c0-4.2 0.6-7.4 1.9-9.2 1.3-1.9 3.7-3.7 7.3-5.6q13.9-7.1 33.2-11.9c12.9-3.4 26.6-5 41.1-5 31.3 0 54.2 7.1 68.9 21.4 14.5 14.2 21.8 35.9 21.8 64.9v85.4zm-106.8 40.1c8.7 0 17.6-1.6 27.1-4.7 9.5-3.2 17.9-9 25-16.9 4.2-5 7.4-10.6 9-16.9 1.5-6.3 2.6-14 2.6-22.9v-11.1q-3-0.7-6-1.4-3-0.6-6.1-1.2-3-0.6-6-1-3.1-0.5-6.1-0.9-3.1-0.4-6.2-0.7-3.1-0.3-6.2-0.5-3.1-0.2-6.2-0.3-3.1-0.1-6.2-0.1c-17.6 0-30.5 3.4-39.2 10.6-8.7 7.1-12.9 17.1-12.9 30.3 0 12.4 3.2 21.6 9.8 28 6.3 6.5 15.5 9.7 27.6 9.7zm211.3 28.5c-4.7 0-7.9-0.8-10-2.6-2.1-1.6-3.9-5.3-5.5-10.3l-61.9-203.9c-1.5-5.3-2.3-8.7-2.3-10.5 0-4.3 2.1-6.6 6.3-6.6h25.8c5 0 8.4 0.7 10.2 2.6 2.2 1.6 3.7 5.3 5.3 10.3l44.2 174.6 41.1-174.6c1.3-5.3 2.9-8.7 5-10.3 2.1-1.6 5.8-2.6 10.5-2.6h21.1c5 0 8.4 0.7 10.5 2.6 2.1 1.6 3.9 5.3 5 10.3l41.6 176.7 45.5-176.7c1.6-5.3 3.4-8.7 5.2-10.3 2.2-1.6 5.6-2.6 10.3-2.6h24.5c4.2 0 6.6 2.1 6.6 6.6 0 1.3-0.3 2.6-0.6 4.2q-0.1 0.8-0.3 1.6-0.2 0.9-0.4 1.7-0.3 0.8-0.5 1.6-0.3 0.9-0.6 1.7l-63.4 203.8q-2.4 7.9-5.6 10.3c-2.1 1.6-5.5 2.7-10 2.7h-22.6c-5 0-8.4-0.8-10.5-2.7-2.1-1.8-4-5.3-5-10.5l-40.8-170.1-40.5 169.8c-1.3 5.3-2.9 8.7-5 10.6-2.1 1.8-5.8 2.6-10.6 2.6 0 0-22.6 0-22.6 0zm338.2 7.1c-13.7 0-27.4-1.6-40.6-4.7-13.1-3.2-23.4-6.6-30.2-10.6-4.2-2.4-7.1-5-8.2-7.4q-0.4-0.8-0.7-1.7-0.2-0.9-0.4-1.9-0.2-0.9-0.3-1.9-0.1-0.9-0.2-1.9v-13.4c0-5.5 2.2-8.2 6.1-8.2q2.4 0 4.7 0.8c1.6 0.5 4 1.6 6.6 2.6q3.5 1.6 7.1 2.9 3.5 1.4 7.1 2.5 3.7 1.2 7.4 2.2 3.6 0.9 7.4 1.7c10.5 2.1 20.8 3.1 31.3 3.1 16.6 0 29.5-2.9 38.4-8.7 8.9-5.8 13.7-14.2 13.7-25 0-7.4-2.4-13.5-7.1-18.5-4.8-5-13.7-9.5-26.6-13.7l-38.2-11.9c-19.2-6-33.4-15-42.1-26.9-8.6-11.6-13.1-24.5-13.1-38.2q0-16.6 7.1-29.3c4.7-8.4 11-15.8 18.9-21.6 7.9-6.1 16.9-10.6 27.4-13.7 10.5-3.2 21.6-4.5 33.2-4.5 5.7 0 11.8 0.3 17.6 1.1 6 0.7 11.6 1.8 17.1 2.9 5.3 1.3 10.3 2.6 15 4.2q7.1 2.4 11 4.7c3.7 2.1 6.4 4.2 7.9 6.6q2.4 3.2 2.4 8.7v12.4c0 5.6-2.1 8.5-6 8.5-2.1 0-5.6-1.1-10-3.2q-22.5-10.3-50.6-10.3c-15 0-26.8 2.4-35 7.4-8.1 5-12.3 12.7-12.3 23.5 0 7.4 2.6 13.7 7.9 18.7 5.2 5 15 10 28.9 14.5l37.4 11.9c18.9 6 32.6 14.5 40.8 25.3 8.1 10.8 12.1 23.2 12.1 36.9 0 11.3-2.4 21.6-6.9 30.6-4.7 9-11 16.9-19.2 23.2-8.1 6.6-17.9 11.4-29.2 14.8-11.8 3.7-24.2 5.5-37.6 5.5z"/></svg>