<svg version="1.2" xmlns="http://www.w3.org/2000/svg" viewBox="0 0 800 800" width="800" height="800"><style>.a{fill:none}.b{fill:#fff}</style><path fill-rule="evenodd" class="a" d="m0 0h800v800h-800z"/><path fill-rule="evenodd" class="b" d="m136.7 699.8c14.6 11.9 36.1 9.7 47.9-5 11.9-14.7 9.7-36.2-5-48-14.6-11.9-36.1-9.6-48 5-11.2 13.9-9.8 33.9 2.9 46.1l-6.7-5.8c-78.5-73-127.8-177.2-127.8-292.6 0-220.3 179.2-399.5 399.5-399.5 112 0 213.3 46.4 285.9 120.9 16.5-22.4 30.8-47.5 42.5-75.4 50.9 153 80.8 281.5 69.8 382.8-14.8 206.8-187.7 370.7-398.2 370.7-97.8 0-187.4-35.4-256.9-93.9 0 0-6-5.2-5.9-5.3zm589.5-124.5c100.2-133.4 44.3-349.1-2.2-487-41.4 86.3-143.4 152.3-231.5 173.2-82.6 19.7-155.7 3.6-232.1 33-174.2 67-171.5 274.8-75.5 321.5 0.1 0 5.8 3.1 5.7 3 0-0.1 141.1-28.1 219.1-56.9 114-42.1 239.1-145.8 280.3-266.4-21.9 125.4-129.6 246-237.7 301.4-57.5 29.5-102.3 36.1-197 68.9-11.6 3.9-20.7 7.8-20.7 7.8 24-4 48-5.3 48-5.3 134.8-6.3 345.1 38 443.6-93.2z"/></svg>